<?xml version="1.0" encoding="utf-8"?>
<!-- Generator: Adobe Illustrator 16.2.1, SVG Export Plug-In . SVG Version: 6.00 Build 0)  -->
<!DOCTYPE svg PUBLIC "-//W3C//DTD SVG 1.1//EN" "http://www.w3.org/Graphics/SVG/1.1/DTD/svg11.dtd">
<svg version="1.1" id="Layer_1" xmlns="http://www.w3.org/2000/svg" xmlns:xlink="http://www.w3.org/1999/xlink" x="0px" y="0px"
	 width="1074.325px" height="486.595px" viewBox="0 0 1074.325 486.595" enable-background="new 0 0 1074.325 486.595"
	 xml:space="preserve">
<circle fill="#FFFFFF" stroke="#000000" stroke-width="3" stroke-miterlimit="10" cx="246.926" cy="242.189" r="239.189"/>
<text transform="matrix(1 0 0 1 190.3052 36.2876)" font-family="'HelveticaNeue'" font-size="15.4831">Service/data tier</text>
<circle fill="#9BFFF5" stroke="#000000" stroke-width="3" stroke-miterlimit="10" cx="246.926" cy="275.476" r="161.203"/>
<text transform="matrix(1 0 0 1 226.9995 147.998)" font-family="'HelveticaNeue'" font-size="15.4831">Client</text>
<circle fill="#16DBFF" stroke="#000000" stroke-width="3" stroke-miterlimit="10" cx="246.781" cy="247.134" r="49.93"/>
<text transform="matrix(1 0 0 1 225.2734 252.8413)" font-family="'HelveticaNeue'" font-size="15.4831">Model</text>
<circle fill="#16DBFF" stroke="#000000" stroke-width="3" stroke-miterlimit="10" cx="175.141" cy="331.587" r="49.93"/>
<text transform="matrix(1 0 0 1 158.8062 337.2954)" font-family="'HelveticaNeue'" font-size="15.4831">View</text>
<circle fill="#16DBFF" stroke="#000000" stroke-width="3" stroke-miterlimit="10" cx="323.94" cy="328.07" r="49.93"/>
<text transform="matrix(1 0 0 1 290.1104 333.7769)" font-family="'HelveticaNeue'" font-size="15.4831">Controller</text>
<circle fill="#FFFFFF" stroke="#000000" stroke-width="3" stroke-miterlimit="10" cx="827.926" cy="239.189" r="239.189"/>
<text transform="matrix(1 0 0 1 771.3052 33.2876)" font-family="'HelveticaNeue'" font-size="15.4831">Service/data tier</text>
<circle fill="#9BFFF5" stroke="#000000" stroke-width="3" stroke-miterlimit="10" cx="827.926" cy="272.476" r="161.203"/>
<text transform="matrix(1 0 0 1 807.9995 144.998)" font-family="'HelveticaNeue'" font-size="15.4831">Client</text>
</svg>
